<?xml version="1.0" encoding="utf-8"?>
<!-- Generator: Adobe Illustrator 27.8.0, SVG Export Plug-In . SVG Version: 6.00 Build 0)  -->
<svg version="1.1" id="Ebene_1" xmlns="http://www.w3.org/2000/svg" xmlns:xlink="http://www.w3.org/1999/xlink" x="0px" y="0px"
	 viewBox="0 0 595.28 841.89" style="enable-background:new 0 0 595.28 841.89;" xml:space="preserve">
<style type="text/css">
	.st0{fill:#1D1D1B;}
</style>
<path class="st0" d="M481.22,372.32L481.22,372.32c0,17.14-13.9,31.04-31.04,31.04H131.74c-17.14,0-31.04-13.9-31.04-31.04v0
	c0-17.14,13.9-31.04,31.04-31.04h318.44C467.32,341.28,481.22,355.18,481.22,372.32z"/>
<path class="st0" d="M481.22,486.48L481.22,486.48c0,20.42-16.55,36.97-36.97,36.97H137.67c-20.42,0-36.97-16.55-36.97-36.97v0
	c0-20.42,16.55-36.97,36.97-36.97h306.59C464.67,449.51,481.22,466.06,481.22,486.48z"/>
<path class="st0" d="M100.69,270.82L100.69,270.82c0-13.43,10.88-24.31,24.31-24.31h331.9c13.43,0,24.31,10.88,24.31,24.31v0
	c0,13.43-10.88,24.31-24.31,24.31h-331.9C111.58,295.13,100.69,284.25,100.69,270.82z"/>
<g>
	<g>
		<path class="st0" d="M337.24,495.12c3.22,0,3.22-5,0-5C334.02,490.12,334.02,495.12,337.24,495.12L337.24,495.12z"/>
	</g>
</g>
</svg>
