<?xml version="1.0" encoding="utf-8"?><svg version="1.1" id="Ebene_1" xmlns="http://www.w3.org/2000/svg" xmlns:xlink="http://www.w3.org/1999/xlink" x="0px" y="0px"viewBox="0 0 595.28 841.89" style="enable-background:new 0 0 595.28 841.89;" xml:space="preserve"><style type="text/css">.st0{fill:#1D1D1B;}</style><path class="st0" d="M481.22,372.32L481.22,372.32c0,13.43-10.88,24.31-24.31,24.31h-331.9c-13.43,0-24.31-10.88-24.31-24.31v0c0-13.43,10.88-24.31,24.31-24.31h331.9C470.34,348.01,481.22,358.9,481.22,372.32z"/><path class="st0" d="M481.22,473.43L481.22,473.43c0,13.43-10.88,24.31-24.31,24.31h-331.9c-13.43,0-24.31-10.88-24.31-24.31v0c0-13.43,10.88-24.31,24.31-24.31h331.9C470.34,449.11,481.22,460,481.22,473.43z"/><path class="st0" d="M100.69,271.22L100.69,271.22c0-13.43,10.88-24.31,24.31-24.31h331.9c13.43,0,24.31,10.88,24.31,24.31v0c0,13.43-10.88,24.31-24.31,24.31h-331.9C111.58,295.53,100.69,284.65,100.69,271.22z"/></svg>